<svg xmlns="http://www.w3.org/2000/svg" version="1.1" xmlns:xlink="http://www.w3.org/1999/xlink" xmlns:svgjs="http://svgjs.com/svgjs" height="167.49595642089844" width="278.90093078613285"><defs id="SvgjsDefs3287"></defs><g id="SvgjsG3288" rel="mainfill" name="main_text" xmlns:name="main_text" transform="translate(48.41046686172487,-137.23702239990234)" fill="#E3862D"><path d="M24.66 201.64L20.90 201.64L20.46 203.72L20.30 203.72C18.66 201.92 16.20 201.37 13.86 201.37C7.42 201.37 3.44 205.03 3.44 211.52C3.44 213.81 3.44 228.16 3.44 230.45C3.44 237.38 8.13 240.60 14.24 240.60C20.35 240.60 24.99 237.65 24.99 230.89L24.99 228.81L19.31 228.81L19.31 230.83C19.31 234.71 18.17 237.00 14.19 237.00C10.91 237.00 9.11 234.98 9.11 230.45C9.11 228.16 9.11 213.81 9.11 211.52C9.11 206.72 11.46 204.97 14.02 204.97C17.95 205.03 18.99 207.86 18.99 211.30L18.99 212.34L24.66 212.34ZM50.63 214.19C50.63 208.63 46.76 205.03 40.70 205.03C34.65 205.03 30.77 208.68 30.77 214.19C30.77 219.92 30.77 225.60 30.77 231.32C30.77 236.84 34.65 240.49 40.70 240.49C46.76 240.49 50.63 236.89 50.63 231.32ZM36.12 214.19C36.12 210.37 37.54 208.46 40.70 208.46C43.87 208.46 45.34 211.03 45.34 214.19C45.34 219.92 45.34 225.60 45.34 231.32C45.34 234.43 43.87 237.05 40.70 237.05C37.54 237.05 36.12 235.09 36.12 231.32ZM77.26 214.57C77.26 208.14 72.68 205.57 67.44 205.57L56.96 205.57L56.96 207.04L58.76 208.63C58.76 218.07 58.76 227.56 58.76 237.00L56.69 238.53L56.69 240C60.29 240 63.84 240 67.44 240C73.17 240 77.26 237.05 77.26 230.94ZM67.44 208.74C70.99 208.74 71.91 211.35 71.91 214.46C71.91 216.54 71.91 228.92 71.91 230.94C71.91 234.11 70.99 236.78 67.44 236.78C65.97 236.78 64.49 236.78 63.07 236.78L63.02 236.45C63.89 236.24 64.16 235.80 64.16 234.93C64.16 229.80 64.16 213.92 64.16 208.74ZM101.87 240L101.87 232.31L99.58 232.31L97.83 236.89L89.70 236.89L89.70 236.62C90.57 236.34 90.79 235.91 90.79 235.09L90.79 224.45L95.27 224.45L96.63 226.96L98.16 226.96L98.16 218.67L96.63 218.67L95.27 221.34L90.79 221.34L90.79 208.63L97.23 208.63L98.65 213.26L101.21 213.26L101.21 205.57L83.64 205.57L83.64 206.88L85.44 208.24L85.44 237.00L83.32 238.53L83.32 240ZM112.83 236.89C112.83 228.92 112.83 221.01 112.83 213.05L112.56 206.01L112.83 206.01C114.85 216.81 116.60 227.07 118.40 237.93C118.56 238.96 119.11 239.45 120.25 239.45L124.78 239.45L130.79 205.63L131.00 205.63L130.84 211.08C130.84 219.65 130.84 228.21 130.84 236.78L128.44 238.42L128.44 240C131.55 240 135.75 240 138.86 240L138.86 238.42L136.46 236.78C136.46 226.09 136.46 215.45 136.46 204.75L138.59 203.33L138.59 201.75C135.48 201.75 133.79 201.81 130.68 201.81C128.60 201.75 127.89 202.13 127.46 204.15L122.60 232.96L122.49 232.96C121.24 222.27 120.04 215.07 118.02 204.32C117.53 202.24 116.82 201.75 114.80 201.75C111.91 201.75 109.67 201.75 106.78 201.75L106.78 203.33L108.96 204.75C108.96 215.45 108.96 226.20 108.96 236.89L106.67 238.31L106.67 240C109.34 240 112.45 240 115.13 240L115.13 238.31L112.83 236.89ZM151.19 208.41L152.94 207.04L152.94 205.57L144.21 205.57L144.21 207.04L145.95 208.41C145.95 217.96 145.95 227.45 145.95 237.00L143.88 238.53L143.88 240C146.72 240 150.43 240 153.21 240L153.21 238.53L151.19 237.00ZM165.32 207.64C164.61 205.74 164.07 205.57 162.59 205.57C161.07 205.57 159.32 205.57 157.79 205.57L157.79 206.88L159.38 207.81L165.38 223.58L158.50 237.54L156.76 238.53L156.76 240L164.01 240L164.01 238.53L162.16 237.60L166.85 227.83L170.89 237.93C171.65 239.89 172.31 240 173.78 240L178.64 240L178.64 238.75L176.78 237.65L170.29 220.96L176.62 207.97L178.31 206.99L178.31 205.57C176.24 205.57 173.34 205.57 171.27 205.57L171.27 206.99L173.07 207.92L168.76 216.87Z" fill="#E3862D" ></path></g><g id="SvgjsG3289" transform="translate(0,0) scale(2.1)" rel="mainfill" name="outline_container" xmlns:name="outlineContainer_mainfill" fill="#E3862D"><defs></defs><title>template-7</title><g id="Ñëîé_2" data-name="Ñëîé 2" fill="#E3862D"><g id="Layer_1" data-name="Layer 1" fill="#E3862D"><path d="M102.1,61.31c-.11.13,0,.44.25.2C102.47,61.38,102.39,61.07,102.1,61.31Z" fill="#E3862D"></path><path d="M132.37,60.47h-.17l.16.14S132.37,60.52,132.37,60.47Z" fill="#E3862D"></path><path d="M19.12,18.77h.6a.94.94,0,0,1,.32-.6C19.71,18,19.42,18.44,19.12,18.77Z" fill="#E3862D"></path><path d="M22.5,18.77a1.21,1.21,0,0,1-.46-1c.68-.08,2.3.62,1.08-.75.94-.24.83,1,.81,1.71H26.7a2.28,2.28,0,0,1,.31-.86c.51.26.36.56.16.86h105.2a5.6,5.6,0,0,1,.07-.59l.21-1.3H88.54L66.33,0,44.12,16.88H25.19a1,1,0,0,0,.2.47c-.59.09-.75-.13-.78-.47H21.89a4.62,4.62,0,0,1-.47,1.89Zm39-.34c-.23.71-1.36-.21-.72-.63C61.11,17.58,61.58,18.16,61.5,18.43Zm2.48.05a.88.88,0,0,1,1.13.14A.86.86,0,0,1,64,18.48Zm3.52-1.15c0-.23.44-.15.45,0S67.51,17.46,67.5,17.33Zm-5.57-12c0,.23-.44.15-.44,0S61.92,5.21,61.93,5.34Zm-8.65,7.94a.94.94,0,0,1,.4-.39l.06,0,.64-.48c-.29,0-1.14.08-.28,0h.32l7.8-5.93A3.33,3.33,0,0,0,61.76,6c.14-.23.53-.07.8.2l3-2.24a1.29,1.29,0,0,1,.81-.28,1.26,1.26,0,0,1,.8.28l17,12.9H48.54Z" fill="#E3862D"></path><path d="M.29,18.77H19c.26-1-1.25-1.12-1.29-1.79.28-.24.61.18.93.39a3.38,3.38,0,0,1,2.24-.16,1,1,0,0,1,.05-.33h-3.7a1.85,1.85,0,0,1-.42.17l0-.17H0l.21,1.3C.24,18.37.27,18.57.29,18.77Zm12.51-1c0,.23-.43.15-.44,0S12.8,17.66,12.8,17.78Z" fill="#E3862D"></path><path d="M63.42,77.58l.43.33A.55.55,0,0,0,63.42,77.58Z" fill="#E3862D"></path><path d="M59.32,74.21c0,.12.46.2.45,0S59.3,74,59.32,74.21Z" fill="#E3862D"></path><path d="M72.91,62.45a3.24,3.24,0,0,1-.19.46h.62A1.21,1.21,0,0,1,72.91,62.45Z" fill="#E3862D"></path><path d="M97.8,60.93a1.84,1.84,0,0,0,0-.25h-.36A2.27,2.27,0,0,1,97.8,60.93Z" fill="#E3862D"></path><path d="M94.94,60.68h-1A2.15,2.15,0,0,0,94.94,60.68Z" fill="#E3862D"></path><path d="M69.77,73.81l-.59.45a.59.59,0,0,1,.06.16l-1,1.2c.07-.28,0-.42-.15-.5l-.92.7a1.35,1.35,0,0,1-1.24.2c-.1.22-.17.45.13.65-1.19.42-1.4-.86-1.66-1.73l-.29-.22c-1.36-.22-2.83-2-4.19-2.13-.24,1.08.4.84,1.23,1.49-.34.56-.7.71-1.1.31a1.67,1.67,0,0,0,.42.92l1.67,1.27a.93.93,0,0,1,1,.52,1,1,0,0,1-.19.12l.3.22c.38-.6.84,0,1.24-.44.5.57-.28,1.22.57,1.76H65l1.36,1,6.45-4.9c0-.32.3-.65.25-1A14.31,14.31,0,0,1,69.77,73.81Zm-8.54,2.06a.88.88,0,0,1,.15-1.13,2.07,2.07,0,0,1,1.41.8C62.33,76.49,61.73,75.5,61.23,75.87Zm8.52-.59-.62.72C68.12,75.74,69.36,74.32,69.75,75.28Zm-2,.37.48.41-.42.48-.48-.42ZM65,78.31c.21-.22.45.07.69.18C65.49,78.72,65.24,78.42,65,78.31Zm.51.87c.21-.23.45.07.69.18C66,79.58,65.75,79.29,65.52,79.18Zm1-1.2c-.23-.21.07-.46.18-.68-.17-.23-.31-.11-.45,0-.4-.93,1.14-.5,1.58.12C67.46,77.91,67,77.17,66.56,78Zm1.28-1c1-.48,1.84-1.71,2.87-.88C69.77,76.59,68.88,77.83,67.84,77Zm2.6-1.53c.21-.23.45.07.68.18C70.92,75.86,70.67,75.57,70.44,75.46Z" fill="#E3862D"></path><path d="M132.09,61.69c0,1-.29.21-.87.51-.42-.54,1-1.2.44-1.73h-1.53a1.49,1.49,0,0,0,0,.21H118.3a.83.83,0,0,1,.21.16c-.67.49-1.6,1.34-2.41,2.07h1.72c-.06-.22-.37-.42-.56-.63.29-.22.62.25.9-.07,0,.2.07.45.09.7h.44c-.12,0-.13-.19,0-.28.28-.23.35.07.24.21a.31.31,0,0,1-.16.07h3.14s0,0,0,0c0-.23.44-.16.45,0a.11.11,0,0,1-.05.09h1.09a.94.94,0,0,1,1-.45c.19.14.16.29.06.45h1a1.23,1.23,0,0,1,.56-.33,1.09,1.09,0,0,1,.18.33h5.45s0,0,0,0c.19-.16.29-.07.29,0h.87l-.16-1A.59.59,0,0,1,132.09,61.69Zm-12.41-.26c.21-.23.46.07.69.18C120.16,61.83,119.92,61.54,119.68,61.43Zm1.86.77c-1.14.49-.23-1.17.38-.93C123.21,61.14,120.82,61.7,121.54,62.2Zm2.89-.43-.47-.41.41-.49.48.42Zm6-.64c0-.24.44-.16.45,0S130.48,61.25,130.47,61.13Z" fill="#E3862D"></path><path d="M80.71,61.23c-.33.1-1-.22-.66.27-.45.41-.74-.36-.77-.82H67.19a.67.67,0,0,1-.44.62,1.08,1.08,0,0,1-.26-.62H41.1a1,1,0,0,1-.2,1.3,6.16,6.16,0,0,1-.62-1.3H29.63c.12.49-.88,1-1.14,1-.41-.31.14-.69.52-1H27.67l-.59.24a1.34,1.34,0,0,1-.12-.24H2.54c0-.07,0-.14,0-.21H.29c0,.08,0,.16,0,.24a5.51,5.51,0,0,1-.1.91L0,62.91H22.63c-.28-.11-.58-.53-.86-.71.42-.38.88-.19,1.37.35a.58.58,0,0,1-.28.36H39.29a2.21,2.21,0,0,1-1.08-.74.91.91,0,0,1,.89-.06c.42-.48-.38-.88.36-1.38a1.51,1.51,0,0,1,.19,2.18h1.23l-.16-.24c.81-.58.52-1.08,1-1.64.69.47.5,1-.12,1.58a1,1,0,0,0,.28.3h2.22l9.61,7.3c.08,0,.14.05.14.1h0l1.09.83a.73.73,0,0,0-.16-.45c.47-.76,1.09.55,1.59.11.32.31-.36.56-.86.77l3,2.28a1.21,1.21,0,0,1,0-1.62c.4.69,1.4.62.45,0a2.08,2.08,0,0,1,.79-.78l-.26-.2c-.84.53-1.63,1.73-2.56.89.47-.68,1-1,1.55-.33.61-.9-1.48-.17-.3-1.1-.58-.83-1,.25-1.61-.57-.47-.22-.87.58-1.38-.35.45,0,.84-.82,1.34-.1.32-.46-.6-.84-.77-1.27l-7.22-5.49H58.69a.56.56,0,0,0-.19-.36.32.32,0,0,1,.5.36h2.07A1.21,1.21,0,0,0,61,62.6c.47-.34.49,0,.57.31h5.91l.07-.09a.41.41,0,0,1,0,.09H70l0,0c0-.23.44-.16.45,0s0,0,0,.06h.66c-.46-.84,2,.14.66-1.06a2,2,0,0,0,1.28-1c.66.22.4.87.75,1.08,1.19.69,2.38-.17,3.13,1h1.48a5.63,5.63,0,0,1,1.08-.24l.25.24h1.83c-.05-.53-.47-1.42-1-.55-.57-.55.63-.87.83-1s.1-.3,0-.44c.53-.18.3.37,1.17.59-.27.45-.59.22-.87.51a1.47,1.47,0,0,1,.93.39c.63-.74,1.23-1.7,2-.82-.52.07-.63.32-.17.69a4.52,4.52,0,0,0-1.56.59h1.29l-.5.38a.4.4,0,0,0,.38,0c.11.33-.22,1,.27.65.45.84-1.33,1.31-1.1.31-.41.4-.15.76-.6,1.17.33.44.62.2.9-.07.61.92-.26.72-.83,1a4.16,4.16,0,0,0-.37,1.41l2.6-2s0,0,0,0,.13-.15.26-.13l.79-.6c-.36.2-.17-.23-.45-.43a.32.32,0,0,1,.48.4l2.62-2H90a17.68,17.68,0,0,0,2.52-2.23H81A.6.6,0,0,0,80.71,61.23Zm-61.9.5c0-.24.44-.16.44,0S18.82,61.85,18.81,61.73Zm16.05.9c.21-.23.45.07.69.18C35.34,63,35.09,62.74,34.86,62.63ZM57.51,71c0,.23-.44.15-.45,0S57.5,70.83,57.51,71ZM54.67,68.9c1.31.12-1.28.3,0,0ZM44,61.31c0-.23.44-.15.45,0S44,61.44,44,61.31Zm21.44.53c.2-.22.45.07.69.18C65.91,62.25,65.67,62,65.44,61.84Zm1.61.57a.87.87,0,0,1,.15-1.14A.89.89,0,0,1,67.05,62.41Zm2.39-1.3c0,.24-.44.16-.45,0S69.43,61,69.44,61.11Zm-1,1.2c.49-.37,1-1,1.54-.33C69.47,62.67,69,62.94,68.4,62.31Zm10.54-.51c0-.23.44-.16.45,0S79,61.92,78.94,61.8Zm8.17.78c1.31.12-1.28.3,0,0Zm-1.2-1,.72.62c-.15.83-1.41.37-.84,1C85.2,63.5,84.93,62,85.91,61.54Z" fill="#E3862D"></path><path d="M101.07,62.5c.59.77,1-.36,1.13.41h.32s0,0-.08,0C103.4,61.89,101.42,62.12,101.07,62.5Z" fill="#E3862D"></path><path d="M118,60.68h-4c-.14.17-.3.33-.42.5a2.65,2.65,0,0,0-.31-.5h-.36a1,1,0,0,1-.67.59c-.23-.07-.15-.34,0-.59h-.47a1.07,1.07,0,0,1-.24.42,1.2,1.2,0,0,1-.51-.42h-.92l.06.06a.5.5,0,0,1-.6-.06h-.71a.2.2,0,0,1,0,.16c-.25.21-.33,0-.26-.16h-4.66c-.73.8-1.48,1.63-.19,1.19-.31.17-.58.84-.89,1h4.48a2,2,0,0,1,1.88,0h.44c1-.67.65-.93.79-2,.77.12.6.73,1.64,1a2.17,2.17,0,0,0-1.26.95h4.43a7.47,7.47,0,0,1,2.84-2A.32.32,0,0,1,118,60.68Zm-8.64,1.47c-.45.26-.26-.2,0-.45C109.79,61.44,109.6,61.9,109.37,62.15Zm3.86.41c0-.24.44-.16.45,0S113.24,62.68,113.23,62.56Zm1.11-.31c0-.23.43-.15.44,0S114.34,62.38,114.34,62.25Zm.89-.06-.48-.42a1.47,1.47,0,0,1,.39-.92l.71.62Z" fill="#E3862D"></path><path d="M99.1,60.68c-.27.17-.55.3-.37.64,1-.28,2-.34,3-.64Z" fill="#E3862D"></path><path d="M71.35,62.91h.13S71.45,62.87,71.35,62.91Z" fill="#E3862D"></path><path d="M65.42,75.75l-.06,0a1.49,1.49,0,0,0-.06.34C65.5,76.9,65.49,76,65.42,75.75Z" fill="#E3862D"></path><path d="M60.54,72.32c0-.12-.47-.2-.45,0S60.55,72.55,60.54,72.32Z" fill="#E3862D"></path><path d="M74.22,71.59c-.42.62.94,1.07,1.17.59a2.06,2.06,0,0,1,0,.76l.67-.51.06-.07h0l1-.76c-.29-.11-.56-.06-.86-.39C76.28,72.39,74.92,71.47,74.22,71.59Z" fill="#E3862D"></path><path d="M80.15,66.22c.85-.26.9,0,1.29-1l-.17-.15-.34.26a1.3,1.3,0,0,1-.78.59l-.5.38c.13.51.29,1,.57.81.21,1-1,.7-1.14-.15a.48.48,0,0,0-.29,0l-1.67,1.27.26.21a.92.92,0,0,1-.68.11l-.35.26c.1.34-.7,1.32-1.12,1.13l.48.42c-.48.2-.64-.08-.81-.44l-.86.65a1.29,1.29,0,0,0,.36.33c1.2-.07,2.34-.89,3.55-.7a.57.57,0,0,1,.17.63l1.63-1.24a4.21,4.21,0,0,1-.51-.38c.21-.15.44,0,.66-.27l.33.29.8-.61c.59-.76.33-1.79,1.19-1.87C81.46,65.49,80.88,67,80.15,66.22Zm-1.57,3.26c0-.23.44-.15.45,0S78.59,69.61,78.58,69.48Zm.39-.92c.25-.07-.58-.84-.49-.42-.07-.29,0-.37.21-.24C78.67,67.88,79.85,68.33,79,68.56Zm1.1-.31c0-.23.44-.15.45,0S80.08,68.38,80.07,68.25Z" fill="#E3862D"></path><path d="M82.91,63.83l-.92.7A2,2,0,0,0,82.91,63.83Z" fill="#E3862D"></path><path d="M77.09,70.72c0,.12.46.19.45,0S77.07,70.48,77.09,70.72Z" fill="#E3862D"></path><path d="M66.12,7.61l-8.93,6.45H75.06Zm-2.25,3.48c-.09.26-.18,0-.17-.18S63.88,10.9,63.87,11.09ZM60.39,12c-.09-.1.13-.23.18-.18S60.44,12,60.39,12Zm.7.17c0-.17.21-.14.35-.17C61.43,12.12,61.22,12.09,61.09,12.13Zm1.39,1c.09-.27.18,0,.17.17S62.47,13.35,62.48,13.17Zm1-.87c-.56-.1-.81.12-1.21.18,0-.21,0-.32-.18-.35s-.16.06-.17.17c-.47-.53,1.45-.16,1.21-1,.09.61,1.37,0,1.22.87C64.13,11.85,63.49,11.52,63.52,12.3Zm1-.17c0-.2.18-.1.18,0S64.56,12.22,64.56,12.13Zm2.61,1.73c0-.19.17-.09.17,0S67.17,14,67.17,13.86Zm0,57.54c0,.11,0,.2,0,.28l.29-.21A.22.22,0,0,0,67.17,71.4Zm-.52.66.13-.09-.13,0C66.63,72,66.65,72,66.65,72.06Zm1.74-5.18a7.13,7.13,0,0,1-.74-.89H57.19l6.56,4.74s.1,0,.12,0a.07.07,0,0,1,0,.1l1.48,1.07c.21-.16.42-.42.44-.13s0,.35,0,.43l.34.24c.07-.23-.2-.41-.14-.84a3,3,0,0,1,2.26-.7l0,0,1.84-1.32a.65.65,0,0,0-.11-.12c0-.08.14-.07.27,0L75.06,66H68C68.12,66.27,68.26,66.57,68.39,66.88ZM63,68.61c.09-.26.18,0,.17.18S63,68.8,63,68.61Zm.87-.34a.18.18,0,0,1,.35,0C64.14,68.52,64.06,68.25,63.87,68.27Zm1.22,2.6c-.42.58-.83-.48,0,0ZM66.3,67.4c0-.22.35-.17.35,0C66.49,67.51,66.34,67.61,66.3,67.4Zm.18-.52c-.1-.09.12-.22.17-.18S66.53,66.92,66.48,66.88ZM71,68.09c.09.09-.13.23-.18.18S71,68.05,71,68.09Zm-.35-.17c.09.09-.13.22-.17.17S70.6,67.87,70.65,67.92Zm-.53.87c0,.2-.17.1-.16,0S70.13,68.69,70.12,68.79Zm-.52-.52c-.07.25-.15,0-.34,0A.17.17,0,0,1,69.6,68.27Z" fill="#E3862D"></path></g></g></g></svg>