<svg xmlns="http://www.w3.org/2000/svg" height="167.496" width="278.901"><path d="M73.07 64.403h-3.76l-.44 2.08h-.16c-1.64-1.8-4.1-2.35-6.44-2.35-6.44 0-10.42 3.66-10.42 10.15v18.93c0 6.93 4.69 10.15 10.8 10.15s10.75-2.95 10.75-9.71v-2.08h-5.68v2.02c0 3.88-1.14 6.17-5.12 6.17-3.28 0-5.08-2.02-5.08-6.55v-18.93c0-4.8 2.35-6.55 4.91-6.55 3.93.06 4.97 2.89 4.97 6.33v1.04h5.67zm25.97 12.55c0-5.56-3.87-9.16-9.93-9.16-6.05 0-9.93 3.65-9.93 9.16v17.13c0 5.52 3.88 9.17 9.93 9.17 6.06 0 9.93-3.6 9.93-9.17zm-14.51 0c0-3.82 1.42-5.73 4.58-5.73 3.17 0 4.64 2.57 4.64 5.73v17.13c0 3.11-1.47 5.73-4.64 5.73-3.16 0-4.58-1.96-4.58-5.73zm41.14.38c0-6.43-4.58-9-9.82-9h-10.48v1.47l1.8 1.59v28.37l-2.07 1.53v1.47h10.75c5.73 0 9.82-2.95 9.82-9.06zm-9.82-5.83c3.55 0 4.47 2.61 4.47 5.72v16.48c0 3.17-.92 5.84-4.47 5.84h-4.37l-.05-.33c.87-.21 1.14-.65 1.14-1.52v-26.19zm34.43 31.26v-7.69h-2.29l-1.75 4.58h-8.13v-.27c.87-.28 1.09-.71 1.09-1.53v-10.64h4.48l1.36 2.51h1.53v-8.29h-1.53l-1.36 2.67h-4.48v-12.71h6.44l1.42 4.63h2.56v-7.69h-17.57v1.31l1.8 1.36v28.76l-2.12 1.53v1.47zm10.96-3.11v-23.84l-.27-7.04h.27c2.02 10.8 3.77 21.06 5.57 31.92.16 1.03.71 1.52 1.85 1.52h4.53l6.01-33.82h.21l-.16 5.45v25.7l-2.4 1.64v1.58h10.42v-1.58l-2.4-1.64v-32.03l2.13-1.42v-1.58c-3.11 0-4.8.06-7.91.06-2.08-.06-2.79.32-3.22 2.34l-4.86 28.81h-.11c-1.25-10.69-2.45-17.89-4.47-28.64-.49-2.08-1.2-2.57-3.22-2.57h-8.02v1.58l2.18 1.42v32.14l-2.29 1.42v1.69h8.46v-1.69l-2.3-1.42zm38.36-28.48l1.75-1.37v-1.47h-8.73v1.47l1.74 1.37v28.59l-2.07 1.53v1.47h9.33v-1.47l-2.02-1.53zm14.13-.77c-.71-1.9-1.25-2.07-2.73-2.07h-4.8v1.31l1.59.93 6 15.77-6.88 13.96-1.74.99v1.47h7.25v-1.47l-1.85-.93 4.69-9.77 4.04 10.1c.76 1.96 1.42 2.07 2.89 2.07h4.86v-1.25l-1.86-1.1-6.49-16.69 6.33-12.99 1.69-.98v-1.42h-7.04v1.42l1.8.93-4.31 8.95z" xmlns:name="main_text" fill="#E3862D"/><g data-name="Ñëîé 2" xmlns:name="outlineContainer_mainfill" fill="#E3862D"><g data-name="Layer 1"><path d="M214.41 128.751c-.231.273 0 .924.525.42.252-.273.084-.924-.525-.42zm63.567-1.764h-.357l.336.294s.021-.189.021-.294zM40.152 39.417h1.26a1.974 1.974 0 0 1 .672-1.26c-.693-.357-1.302.567-1.932 1.26zm7.098 0a2.541 2.541 0 0 1-.966-2.1c1.428-.168 4.83 1.302 2.268-1.575 1.974-.504 1.743 2.1 1.701 3.591h5.817a4.788 4.788 0 0 1 .651-1.806c1.071.546.756 1.176.336 1.806h220.92a11.76 11.76 0 0 1 .147-1.239l.441-2.73h-92.631L139.293 0 92.652 35.448H52.899a2.1 2.1 0 0 0 .42.987c-1.239.189-1.575-.273-1.638-.987h-5.712a9.702 9.702 0 0 1-.987 3.969zm81.9-.714c-.483 1.491-2.856-.441-1.512-1.323.693-.462 1.68.756 1.512 1.323zm5.208.105a1.848 1.848 0 0 1 2.373.294 1.806 1.806 0 0 1-2.331-.294zm7.392-2.415c0-.483.924-.315.945 0s-.924.273-.945 0zm-11.697-25.2c0 .483-.924.315-.924 0s.903-.252.924.021zm-18.165 16.674a1.974 1.974 0 0 1 .84-.819h.126l1.344-1.008c-.609 0-2.394.168-.588 0h.672l16.38-12.453a6.993 6.993 0 0 0-.966-.987c.294-.483 1.113-.147 1.68.42l6.3-4.704a2.709 2.709 0 0 1 1.701-.588 2.646 2.646 0 0 1 1.68.588l35.7 27.09h-74.823z"/><path d="M.609 39.417H39.9c.546-2.1-2.625-2.352-2.709-3.759.588-.504 1.281.378 1.953.819a7.098 7.098 0 0 1 4.704-.336 2.1 2.1 0 0 1 .105-.693h-7.77a3.885 3.885 0 0 1-.882.357v-.357H0l.441 2.73c.063.399.126.819.168 1.239zm26.271-2.1c0 .483-.903.315-.924 0s.924-.231.924.021zm106.302 125.601l.903.693a1.155 1.155 0 0 0-.903-.693zm-8.61-7.077c0 .252.966.42.945 0s-.987-.441-.945 0zm28.539-24.696a6.804 6.804 0 0 1-.399.966h1.302a2.541 2.541 0 0 1-.903-.966zm52.269-3.192a3.864 3.864 0 0 0 0-.525h-.756a4.767 4.767 0 0 1 .756.525zm-6.006-.525h-2.1a4.515 4.515 0 0 0 2.1 0z"/><path d="M146.517 155.001l-1.239.945a1.239 1.239 0 0 1 .126.336l-2.1 2.52c.147-.588 0-.882-.315-1.05l-1.932 1.47a2.835 2.835 0 0 1-2.604.42c-.21.462-.357.945.273 1.365-2.499.882-2.94-1.806-3.486-3.633l-.609-.462c-2.856-.462-5.943-4.2-8.799-4.473-.504 2.268.84 1.764 2.583 3.129-.714 1.176-1.47 1.491-2.31.651a3.507 3.507 0 0 0 .882 1.932l3.507 2.667a1.953 1.953 0 0 1 2.1 1.092 2.1 2.1 0 0 1-.399.252l.63.462c.798-1.26 1.764 0 2.604-.924 1.05 1.197-.588 2.562 1.197 3.696h-.126l2.856 2.1 13.545-10.29c0-.672.63-1.365.525-2.1a30.051 30.051 0 0 1-6.909-.105zm-17.934 4.326a1.848 1.848 0 0 1 .315-2.373 4.347 4.347 0 0 1 2.961 1.68c-.966 1.995-2.226-.084-3.276.693zm17.892-1.239l-1.302 1.512c-2.121-.546.483-3.528 1.302-1.512zm-4.2.777l1.008.861-.882 1.008-1.008-.882zm-5.775 5.586c.441-.462.945.147 1.449.378-.42.483-.945-.147-1.449-.378zm1.071 1.827c.441-.483.945.147 1.449.378-.42.462-.945-.147-1.428-.378zm2.1-2.52c-.483-.441.147-.966.378-1.428-.357-.483-.651-.231-.945 0-.84-1.953 2.394-1.05 3.318.252-.756 1.029-1.722-.525-2.646 1.218zm2.688-2.1c2.1-1.008 3.864-3.591 6.027-1.848-1.869 1.029-3.738 3.633-5.922 1.89zm5.46-3.213c.441-.483.945.147 1.428.378-.315.483-.84-.126-1.323-.357zm129.57-28.896c0 2.1-.609.441-1.827 1.071-.882-1.134 2.1-2.52.924-3.633h-3.213a3.129 3.129 0 0 0 0 .441H248.43a1.743 1.743 0 0 1 .441.336c-1.407 1.029-3.36 2.814-5.061 4.347h3.612c-.126-.462-.777-.882-1.176-1.323.609-.462 1.302.525 1.89-.147 0 .42.147.945.189 1.47h.924c-.252 0-.273-.399 0-.588.588-.483.735.147.504.441a.651.651 0 0 1-.336.147h6.594c0-.483.924-.336.945 0a.231.231 0 0 1-.105.189h2.289a1.974 1.974 0 0 1 2.1-.945c.399.294.336.609.126.945h2.1a2.583 2.583 0 0 1 1.176-.693 2.289 2.289 0 0 1 .378.693h11.445c.399-.336.609-.147.609 0h1.827l-.336-2.1a1.239 1.239 0 0 1-1.176-.651zm-26.061-.546c.441-.483.966.147 1.449.378-.441.462-.945-.147-1.449-.378zm3.906 1.617c-2.394 1.029-.483-2.457.798-1.953 2.709-.273-2.31.903-.798 1.953zm6.069-.903l-.987-.861.861-1.029 1.008.882zm12.6-1.344c0-.504.924-.336.945 0s-.84.252-.861 0z"/><path d="M169.491 128.583c-.693.21-2.1-.462-1.386.567-.945.861-1.554-.756-1.617-1.722h-25.389a1.407 1.407 0 0 1-.924 1.302 2.268 2.268 0 0 1-.546-1.302H86.31a2.1 2.1 0 0 1-.42 2.73 12.936 12.936 0 0 1-1.302-2.73H62.223c.252 1.029-1.848 2.1-2.394 2.1-.861-.651.294-1.449 1.092-2.1h-2.814l-1.239.504a2.814 2.814 0 0 1-.252-.504H5.334v-.441H.609v.504a11.571 11.571 0 0 1-.21 1.911L0 132.111h47.523c-.588-.231-1.218-1.113-1.806-1.491.882-.798 1.848-.399 2.877.735a1.218 1.218 0 0 1-.588.756h34.503a4.641 4.641 0 0 1-2.268-1.554 1.911 1.911 0 0 1 1.869-.126c.882-1.008-.798-1.848.756-2.898a3.171 3.171 0 0 1 .399 4.578h2.583l-.336-.504c1.701-1.218 1.092-2.268 2.1-3.444 1.449.987 1.05 2.1-.252 3.318a2.1 2.1 0 0 0 .588.63h4.662l20.181 15.33c.168 0 .294.105.294.21l2.289 1.743a1.533 1.533 0 0 0-.336-.945c.987-1.596 2.289 1.155 3.339.231.672.651-.756 1.176-1.806 1.617l6.3 4.788a2.541 2.541 0 0 1 0-3.402c.84 1.449 2.94 1.302.945 0a4.368 4.368 0 0 1 1.659-1.638l-.546-.42c-1.764 1.113-3.423 3.633-5.376 1.869.987-1.428 2.1-2.1 3.255-.693 1.281-1.89-3.108-.357-.63-2.31-1.218-1.743-2.1.525-3.381-1.197-.987-.462-1.827 1.218-2.898-.735.945 0 1.764-1.722 2.814-.21.672-.966-1.26-1.764-1.617-2.667l-15.162-11.529h21.315a1.176 1.176 0 0 0-.399-.756.672.672 0 0 1 1.05.756h4.347a2.541 2.541 0 0 0-.147-.693c.987-.714 1.029 0 1.197.651h12.411l.147-.189a.861.861 0 0 1 0 .189H147c0-.483.924-.336.945 0s0 0 0 .126h1.386c-.966-1.764 4.2.294 1.386-2.226a4.2 4.2 0 0 0 2.688-2.1c1.386.462.84 1.827 1.575 2.268 2.499 1.449 4.998-.357 6.573 2.1h3.108a11.823 11.823 0 0 1 2.268-.504l.525.504h3.843c-.105-1.113-.987-2.982-2.1-1.155-1.197-1.155 1.323-1.827 1.743-2.1s.21-.63 0-.924c1.113-.378.63.777 2.457 1.239-.567.945-1.239.462-1.827 1.071a3.087 3.087 0 0 1 1.953.819c1.323-1.554 2.583-3.57 4.2-1.722-1.092.147-1.323.672-.357 1.449a9.492 9.492 0 0 0-3.276 1.239h2.709l-1.05.798a.84.84 0 0 0 .798 0c.231.693-.462 2.1.567 1.365.945 1.764-2.793 2.751-2.31.651-.861.84-.315 1.596-1.26 2.457.693.924 1.302.42 1.89-.147 1.281 1.932-.546 1.512-1.743 2.1a8.736 8.736 0 0 0-.777 2.961l5.46-4.2s.273-.315.546-.273l1.659-1.26c-.756.42-.357-.483-.945-.903a.672.672 0 0 1 1.008.84l5.502-4.2H189a37.128 37.128 0 0 0 5.292-4.683H170.1a1.26 1.26 0 0 0-.609.882zm-129.99 1.05c0-.504.924-.336.924 0s-.903.252-.924 0zm33.705 1.89c.441-.483.945.147 1.449.378-.441.399-.966-.147-1.449-.378zm47.565 17.577c0 .483-.924.315-.945 0s.924-.357.945 0zm-5.964-4.41c2.751.252-2.688.63 0 0zM92.4 128.751c0-.483.924-.315.945 0s-.945.273-.945 0zm45.024 1.113c.42-.462.945.147 1.449.378-.462.483-.966-.042-1.449-.378zm3.381 1.197a1.827 1.827 0 0 1 .315-2.394 1.869 1.869 0 0 1-.315 2.394zm5.019-2.73c0 .504-.924.336-.945 0s.924-.231.945 0zm-2.1 2.52c1.029-.777 2.1-2.1 3.234-.693-1.071 1.449-2.058 2.016-3.318.693zm22.134-1.071c0-.483.924-.336.945 0s-.903.252-1.029 0zm17.157 1.638c2.751.252-2.688.63 0 0zm-2.52-2.1l1.512 1.302c-.315 1.743-2.961.777-1.764 2.1-1.323.63-1.89-2.52.168-3.486zm31.752 1.932c1.239 1.617 2.1-.756 2.373.861h.504c2.016-2.142-2.142-1.659-2.877-.861z"/><path d="M247.8 127.428h-8.4c-.294.357-.63.693-.882 1.05a5.565 5.565 0 0 0-.651-1.05h-.756a2.1 2.1 0 0 1-1.407 1.239c-.483-.147-.315-.714 0-1.239h-.987a2.247 2.247 0 0 1-.504.882 2.52 2.52 0 0 1-1.071-.882h-1.932l.126.126a1.05 1.05 0 0 1-1.26-.126h-1.491a.42.42 0 0 1 0 .336c-.525.441-.693 0-.546-.336h-9.786c-1.533 1.68-3.108 3.423-.399 2.499-.651.357-1.218 1.764-1.869 2.1h9.408a4.2 4.2 0 0 1 3.948 0h.924c2.1-1.407 1.365-1.953 1.659-4.2 1.617.252 1.26 1.533 3.444 2.1a4.557 4.557 0 0 0-2.646 1.995h9.303a15.687 15.687 0 0 1 5.964-4.2.672.672 0 0 1-.189-.294zm-18.144 3.087c-.945.546-.546-.42 0-.945.903-.546.504.42.021.945zm8.106.861c0-.504.924-.336.945 0s-.903.252-.924 0zm2.331-.651c0-.483.903-.315.924 0s-.903.273-.903 0zm1.869-.126l-1.008-.882a3.087 3.087 0 0 1 .819-1.932l1.491 1.302zm-33.852-3.171c-.567.357-1.155.63-.777 1.344 2.1-.588 4.2-.714 6.3-1.344zm-58.275 4.683h.273s-.063-.084-.273 0zm-12.453 26.964h-.126a3.129 3.129 0 0 0-.126.714c.42 1.701.399-.189.252-.714zm-10.248-7.203c0-.252-.987-.42-.945 0s.966.483.945 0zm28.728-1.533c-.882 1.302 1.974 2.247 2.457 1.239a4.326 4.326 0 0 1 0 1.596l1.407-1.071.126-.147 2.1-1.596c-.609-.231-1.176-.126-1.806-.819.042 2.478-2.814.546-4.284.798zm12.453-11.277c1.785-.546 1.89 0 2.709-2.1l-.357-.315-.714.546a2.73 2.73 0 0 1-1.638 1.239l-1.05.798c.273 1.071.609 2.1 1.197 1.701.441 2.1-2.1 1.47-2.394-.315a1.008 1.008 0 0 0-.609 0l-3.507 2.667.546.441a1.932 1.932 0 0 1-1.428.231l-.735.546c.21.714-1.47 2.772-2.352 2.373l1.008.882c-1.008.42-1.344-.168-1.701-.924l-1.806 1.365a2.709 2.709 0 0 0 .756.693c2.52-.147 4.914-1.869 7.455-1.47a1.197 1.197 0 0 1 .357 1.323l3.423-2.604a8.841 8.841 0 0 1-1.071-.798c.441-.315.924 0 1.386-.567l.693.609 1.68-1.281c1.239-1.596.693-3.759 2.499-3.927-1.596-2.646-2.814.525-4.347-1.113zm-3.297 6.846c0-.483.924-.315.945 0s-.924.273-.945 0zm.819-1.932c.525-.147-1.218-1.764-1.029-.882-.147-.609 0-.777.441-.504-.042-.042 2.436.903.651 1.386zm2.31-.651c0-.483.924-.315.945 0s-.924.273-.945 0zm5.964-9.282l-1.932 1.47a4.2 4.2 0 0 0 1.932-1.47z"/><path d="M161.889 148.512c0 .252.966.399.945 0s-.987-.504-.945 0zM138.852 15.981l-18.753 13.545h37.527zm-4.725 7.308c-.189.546-.378 0-.357-.378s.378-.021.357.378zm-7.308 1.911c-.189-.21.273-.483.378-.378s-.273.378-.378.378zm1.47.357c0-.357.441-.294.735-.357-.021.252-.462.189-.735.273zm2.919 2.1c.189-.567.378 0 .357.357s-.378.021-.357-.357zm2.1-1.827c-1.176-.21-1.701.252-2.541.378 0-.441 0-.672-.378-.735s-.336.126-.357.357c-.987-1.113 3.045-.336 2.541-2.1.189 1.281 2.877 0 2.562 1.827-.462-.672-1.806-1.365-1.743.273zm2.1-.357c0-.42.378-.21.378 0s-.21.189-.21 0zm5.481 3.633c0-.399.357-.189.357 0s-.189.294-.189 0zm0 120.834v.588l.609-.441a.462.462 0 0 0-.441-.147zm-1.092 1.386l.273-.189h-.273c.126.063.168.063.168.189zm3.654-10.878a14.973 14.973 0 0 1-1.554-1.869h-21.798l13.776 9.954h.252a.147.147 0 0 1 0 .21l3.108 2.247c.441-.336.882-.882.924-.273s0 .735 0 .903l.714.504c.147-.483-.42-.861-.294-1.764a6.3 6.3 0 0 1 4.746-1.47l3.864-2.772a1.365 1.365 0 0 0-.231-.252c0-.168.294-.147.567 0l10.101-7.266H142.8c.252.567.546 1.197.819 1.848zm-11.151 3.633c.189-.546.378 0 .357.378s-.357.021-.357-.378zm1.827-.714a.378.378 0 0 1 .735 0c-.168.525-.336-.042-.735 0zm2.562 5.46c-.882 1.218-1.743-1.008 0 0zm2.541-7.287c0-.462.735-.357.735 0-.336.231-.651.441-.735 0zm.378-1.092c-.21-.189.252-.462.357-.378s-.252.462-.357.378zm9.492 2.541c.189.189-.273.483-.378.378s.378-.462.378-.378zm-.735-.357c.189.189-.273.462-.357.357s.252-.462.357-.357zm-1.113 1.827c0 .42-.357.21-.336 0s.357-.21.336 0zm-1.092-1.092c-.147.525-.315 0-.714 0a.357.357 0 0 1 .714 0z"/></g></g></svg>